<svg id="visual" viewBox="0 0 900 600" width="900" height="600" xmlns="http://www.w3.org/2000/svg" xmlns:xlink="http://www.w3.org/1999/xlink" version="1.1"><rect x="0" y="0" width="900" height="600" fill="#001220"></rect><path d="M0 295L18.8 302.5C37.7 310 75.3 325 112.8 337C150.3 349 187.7 358 225.2 361.2C262.7 364.3 300.3 361.7 337.8 349.5C375.3 337.3 412.7 315.7 450.2 313.5C487.7 311.3 525.3 328.7 562.8 339.3C600.3 350 637.7 354 675.2 346C712.7 338 750.3 318 787.8 317.3C825.3 316.7 862.7 335.3 881.3 344.7L900 354L900 601L881.3 601C862.7 601 825.3 601 787.8 601C750.3 601 712.7 601 675.2 601C637.7 601 600.3 601 562.8 601C525.3 601 487.7 601 450.2 601C412.7 601 375.3 601 337.8 601C300.3 601 262.7 601 225.2 601C187.7 601 150.3 601 112.8 601C75.3 601 37.7 601 18.8 601L0 601Z" fill="#fa7268"></path><path d="M0 408L18.8 405.3C37.7 402.7 75.3 397.3 112.8 401.7C150.3 406 187.7 420 225.2 427.5C262.7 435 300.3 436 337.8 434.8C375.3 433.7 412.7 430.3 450.2 424.5C487.7 418.7 525.3 410.3 562.8 407.5C600.3 404.7 637.7 407.3 675.2 411C712.7 414.7 750.3 419.3 787.8 409.3C825.3 399.3 862.7 374.7 881.3 362.3L900 350L900 601L881.3 601C862.7 601 825.3 601 787.8 601C750.3 601 712.7 601 675.2 601C637.7 601 600.3 601 562.8 601C525.3 601 487.7 601 450.2 601C412.7 601 375.3 601 337.8 601C300.3 601 262.7 601 225.2 601C187.7 601 150.3 601 112.8 601C75.3 601 37.7 601 18.8 601L0 601Z" fill="#ef5f67"></path><path d="M0 423L18.8 423C37.7 423 75.3 423 112.8 423C150.3 423 187.7 423 225.2 429.2C262.7 435.3 300.3 447.7 337.8 454.5C375.3 461.3 412.7 462.7 450.2 455.2C487.7 447.7 525.3 431.3 562.8 426.8C600.3 422.3 637.7 429.7 675.2 436C712.7 442.3 750.3 447.7 787.8 445.3C825.3 443 862.7 433 881.3 428L900 423L900 601L881.3 601C862.7 601 825.3 601 787.8 601C750.3 601 712.7 601 675.2 601C637.7 601 600.3 601 562.8 601C525.3 601 487.7 601 450.2 601C412.7 601 375.3 601 337.8 601C300.3 601 262.7 601 225.2 601C187.7 601 150.3 601 112.8 601C75.3 601 37.7 601 18.8 601L0 601Z" fill="#e34c67"></path><path d="M0 512L18.8 514.5C37.7 517 75.3 522 112.8 514.5C150.3 507 187.7 487 225.2 482.2C262.7 477.3 300.3 487.7 337.8 490.8C375.3 494 412.7 490 450.2 494.5C487.7 499 525.3 512 562.8 510.8C600.3 509.7 637.7 494.3 675.2 491.3C712.7 488.3 750.3 497.7 787.8 500C825.3 502.3 862.7 497.7 881.3 495.3L900 493L900 601L881.3 601C862.7 601 825.3 601 787.8 601C750.3 601 712.7 601 675.2 601C637.7 601 600.3 601 562.8 601C525.3 601 487.7 601 450.2 601C412.7 601 375.3 601 337.8 601C300.3 601 262.7 601 225.2 601C187.7 601 150.3 601 112.8 601C75.3 601 37.7 601 18.8 601L0 601Z" fill="#d53867"></path><path d="M0 556L18.8 550.5C37.7 545 75.3 534 112.8 530.5C150.3 527 187.7 531 225.2 530.2C262.7 529.3 300.3 523.7 337.8 527.5C375.3 531.3 412.7 544.7 450.2 546.7C487.7 548.7 525.3 539.3 562.8 540C600.3 540.7 637.7 551.3 675.2 556.3C712.7 561.3 750.3 560.7 787.8 559.5C825.3 558.3 862.7 556.7 881.3 555.8L900 555L900 601L881.3 601C862.7 601 825.3 601 787.8 601C750.3 601 712.7 601 675.2 601C637.7 601 600.3 601 562.8 601C525.3 601 487.7 601 450.2 601C412.7 601 375.3 601 337.8 601C300.3 601 262.7 601 225.2 601C187.7 601 150.3 601 112.8 601C75.3 601 37.7 601 18.8 601L0 601Z" fill="#c62368"></path></svg>